{
 "cells": [
  {
   "cell_type": "code",
   "execution_count": 1,
   "id": "a53142da",
   "metadata": {},
   "outputs": [],
   "source": [
    "import os\n",
    "import ffmpeg"
   ]
  },
  {
   "cell_type": "code",
   "execution_count": 3,
   "id": "e71b521e",
   "metadata": {},
   "outputs": [
    {
     "name": "stderr",
     "output_type": "stream",
     "text": [
      "ffmpeg version 8.0.1 Copyright (c) 2000-2025 the FFmpeg developers\n",
      "  built with clang version 19.1.7\n",
      "  configuration: --prefix=/opt/anaconda3/envs/aligner --cc=arm64-apple-darwin20.0.0-clang --cxx=arm64-apple-darwin20.0.0-clang++ --nm=arm64-apple-darwin20.0.0-nm --ar=arm64-apple-darwin20.0.0-ar --disable-doc --enable-openssl --enable-demuxer=dash --enable-hardcoded-tables --enable-libfreetype --enable-libharfbuzz --enable-libfontconfig --enable-libopenh264 --enable-libdav1d --enable-cross-compile --arch=arm64 --target-os=darwin --cross-prefix=arm64-apple-darwin20.0.0- --host-cc=/Users/runner/miniforge3/conda-bld/ffmpeg_1773007843831/_build_env/bin/x86_64-apple-darwin13.4.0-clang --enable-neon --disable-gnutls --enable-libvpx --enable-libass --enable-pthreads --enable-libopenvino --enable-gpl --enable-libx264 --enable-libx265 --enable-libmp3lame --enable-libaom --enable-libsvtav1 --enable-libxml2 --enable-pic --enable-shared --disable-static --enable-version3 --enable-zlib --enable-libvorbis --enable-libopus --enable-librsvg --enable-libjxl --enable-libwebp --enable-ffplay --enable-vulkan --enable-libshaderc --pkg-config=/Users/runner/miniforge3/conda-bld/ffmpeg_1773007843831/_build_env/bin/pkg-config\n",
      "  libavutil      60.  8.100 / 60.  8.100\n",
      "  libavcodec     62. 11.100 / 62. 11.100\n",
      "  libavformat    62.  3.100 / 62.  3.100\n",
      "  libavdevice    62.  1.100 / 62.  1.100\n",
      "  libavfilter    11.  4.100 / 11.  4.100\n",
      "  libswscale      9.  1.100 /  9.  1.100\n",
      "  libswresample   6.  1.100 /  6.  1.100\n",
      "Input #0, mov,mp4,m4a,3gp,3g2,mj2, from '../1. m4a_audio/spk01/spk01_audio0004.m4a':\n",
      "  Metadata:\n",
      "    major_brand     : M4A \n",
      "    minor_version   : 0\n",
      "    compatible_brands: M4A isommp42\n",
      "    creation_time   : 2026-04-21T03:03:19.000000Z\n",
      "    iTunSMPB        :  00000000 00000840 000003C0 000000000002A000 00000000 00000000 00000000 00000000 00000000 00000000 00000000 00000000\n",
      "  Duration: 00:00:03.65, start: 0.044000, bitrate: 80 kb/s\n",
      "  Stream #0:0[0x1](und): Audio: aac (LC) (mp4a / 0x6134706D), 48000 Hz, mono, fltp, 73 kb/s, start 0.044000 (default)\n",
      "    Metadata:\n",
      "      creation_time   : 2026-04-21T03:03:19.000000Z\n",
      "      handler_name    : Core Media Audio\n",
      "      vendor_id       : [0][0][0][0]\n",
      "Stream mapping:\n",
      "  Stream #0:0 -> #0:0 (aac (native) -> pcm_s16le (native))\n",
      "Press [q] to stop, [?] for help\n",
      "Output #0, wav, to '../2. wav_audio + text/spk01/spk01_audio0004.wav':\n",
      "  Metadata:\n",
      "    major_brand     : M4A \n",
      "    minor_version   : 0\n",
      "    compatible_brands: M4A isommp42\n",
      "    iTunSMPB        :  00000000 00000840 000003C0 000000000002A000 00000000 00000000 00000000 00000000 00000000 00000000 00000000 00000000\n",
      "    ISFT            : Lavf62.3.100\n",
      "  Stream #0:0(und): Audio: pcm_s16le ([1][0][0][0] / 0x0001), 16000 Hz, mono, s16, 256 kb/s (default)\n",
      "    Metadata:\n",
      "      encoder         : Lavc62.11.100 pcm_s16le\n",
      "      creation_time   : 2026-04-21T03:03:19.000000Z\n",
      "      handler_name    : Core Media Audio\n",
      "      vendor_id       : [0][0][0][0]\n",
      "[out#0/wav @ 0x138e18c50] video:0KiB audio:113KiB subtitle:0KiB other streams:0KiB global headers:0KiB muxing overhead: 0.067633%\n",
      "size=     113KiB time=00:00:03.60 bitrate= 256.2kbits/s speed= 996x elapsed=0:00:00.00    \n",
      "ffmpeg version 8.0.1 Copyright (c) 2000-2025 the FFmpeg developers\n",
      "  built with clang version 19.1.7\n",
      "  configuration: --prefix=/opt/anaconda3/envs/aligner --cc=arm64-apple-darwin20.0.0-clang --cxx=arm64-apple-darwin20.0.0-clang++ --nm=arm64-apple-darwin20.0.0-nm --ar=arm64-apple-darwin20.0.0-ar --disable-doc --enable-openssl --enable-demuxer=dash --enable-hardcoded-tables --enable-libfreetype --enable-libharfbuzz --enable-libfontconfig --enable-libopenh264 --enable-libdav1d --enable-cross-compile --arch=arm64 --target-os=darwin --cross-prefix=arm64-apple-darwin20.0.0- --host-cc=/Users/runner/miniforge3/conda-bld/ffmpeg_1773007843831/_build_env/bin/x86_64-apple-darwin13.4.0-clang --enable-neon --disable-gnutls --enable-libvpx --enable-libass --enable-pthreads --enable-libopenvino --enable-gpl --enable-libx264 --enable-libx265 --enable-libmp3lame --enable-libaom --enable-libsvtav1 --enable-libxml2 --enable-pic --enable-shared --disable-static --enable-version3 --enable-zlib --enable-libvorbis --enable-libopus --enable-librsvg --enable-libjxl --enable-libwebp --enable-ffplay --enable-vulkan --enable-libshaderc --pkg-config=/Users/runner/miniforge3/conda-bld/ffmpeg_1773007843831/_build_env/bin/pkg-config\n",
      "  libavutil      60.  8.100 / 60.  8.100\n",
      "  libavcodec     62. 11.100 / 62. 11.100\n",
      "  libavformat    62.  3.100 / 62.  3.100\n",
      "  libavdevice    62.  1.100 / 62.  1.100\n",
      "  libavfilter    11.  4.100 / 11.  4.100\n",
      "  libswscale      9.  1.100 /  9.  1.100\n",
      "  libswresample   6.  1.100 /  6.  1.100\n",
      "Input #0, mov,mp4,m4a,3gp,3g2,mj2, from '../1. m4a_audio/spk01/spk01_audio0010.m4a':\n",
      "  Metadata:\n",
      "    major_brand     : M4A \n",
      "    minor_version   : 0\n",
      "    compatible_brands: M4A isommp42\n",
      "    creation_time   : 2026-04-21T03:03:19.000000Z\n",
      "    iTunSMPB        :  00000000 00000840 000003C0 000000000003B000 00000000 00000000 00000000 00000000 00000000 00000000 00000000 00000000\n",
      "  Duration: 00:00:05.10, start: 0.044000, bitrate: 80 kb/s\n",
      "  Stream #0:0[0x1](und): Audio: aac (LC) (mp4a / 0x6134706D), 48000 Hz, mono, fltp, 74 kb/s, start 0.044000 (default)\n",
      "    Metadata:\n",
      "      creation_time   : 2026-04-21T03:03:19.000000Z\n",
      "      handler_name    : Core Media Audio\n",
      "      vendor_id       : [0][0][0][0]\n",
      "Stream mapping:\n",
      "  Stream #0:0 -> #0:0 (aac (native) -> pcm_s16le (native))\n",
      "Press [q] to stop, [?] for help\n",
      "Output #0, wav, to '../2. wav_audio + text/spk01/spk01_audio0010.wav':\n",
      "  Metadata:\n",
      "    major_brand     : M4A \n",
      "    minor_version   : 0\n",
      "    compatible_brands: M4A isommp42\n",
      "    iTunSMPB        :  00000000 00000840 000003C0 000000000003B000 00000000 00000000 00000000 00000000 00000000 00000000 00000000 00000000\n",
      "    ISFT            : Lavf62.3.100\n",
      "  Stream #0:0(und): Audio: pcm_s16le ([1][0][0][0] / 0x0001), 16000 Hz, mono, s16, 256 kb/s (default)\n",
      "    Metadata:\n",
      "      encoder         : Lavc62.11.100 pcm_s16le\n",
      "      creation_time   : 2026-04-21T03:03:19.000000Z\n",
      "      handler_name    : Core Media Audio\n",
      "      vendor_id       : [0][0][0][0]\n",
      "[out#0/wav @ 0x14471c990] video:0KiB audio:158KiB subtitle:0KiB other streams:0KiB global headers:0KiB muxing overhead: 0.048223%\n",
      "size=     158KiB time=00:00:05.05 bitrate= 256.1kbits/s speed=2.25e+03x elapsed=0:00:00.00    \n",
      "ffmpeg version 8.0.1 Copyright (c) 2000-2025 the FFmpeg developers\n",
      "  built with clang version 19.1.7\n",
      "  configuration: --prefix=/opt/anaconda3/envs/aligner --cc=arm64-apple-darwin20.0.0-clang --cxx=arm64-apple-darwin20.0.0-clang++ --nm=arm64-apple-darwin20.0.0-nm --ar=arm64-apple-darwin20.0.0-ar --disable-doc --enable-openssl --enable-demuxer=dash --enable-hardcoded-tables --enable-libfreetype --enable-libharfbuzz --enable-libfontconfig --enable-libopenh264 --enable-libdav1d --enable-cross-compile --arch=arm64 --target-os=darwin --cross-prefix=arm64-apple-darwin20.0.0- --host-cc=/Users/runner/miniforge3/conda-bld/ffmpeg_1773007843831/_build_env/bin/x86_64-apple-darwin13.4.0-clang --enable-neon --disable-gnutls --enable-libvpx --enable-libass --enable-pthreads --enable-libopenvino --enable-gpl --enable-libx264 --enable-libx265 --enable-libmp3lame --enable-libaom --enable-libsvtav1 --enable-libxml2 --enable-pic --enable-shared --disable-static --enable-version3 --enable-zlib --enable-libvorbis --enable-libopus --enable-librsvg --enable-libjxl --enable-libwebp --enable-ffplay --enable-vulkan --enable-libshaderc --pkg-config=/Users/runner/miniforge3/conda-bld/ffmpeg_1773007843831/_build_env/bin/pkg-config\n",
      "  libavutil      60.  8.100 / 60.  8.100\n",
      "  libavcodec     62. 11.100 / 62. 11.100\n",
      "  libavformat    62.  3.100 / 62.  3.100\n",
      "  libavdevice    62.  1.100 / 62.  1.100\n",
      "  libavfilter    11.  4.100 / 11.  4.100\n",
      "  libswscale      9.  1.100 /  9.  1.100\n",
      "  libswresample   6.  1.100 /  6.  1.100\n",
      "Input #0, mov,mp4,m4a,3gp,3g2,mj2, from '../1. m4a_audio/spk01/spk01_audio0011.m4a':\n",
      "  Metadata:\n",
      "    major_brand     : M4A \n",
      "    minor_version   : 0\n",
      "    compatible_brands: M4A isommp42\n",
      "    creation_time   : 2026-04-21T03:03:19.000000Z\n",
      "    iTunSMPB        :  00000000 00000840 000003C0 000000000003E000 00000000 00000000 00000000 00000000 00000000 00000000 00000000 00000000\n",
      "  Duration: 00:00:05.35, start: 0.044000, bitrate: 79 kb/s\n",
      "  Stream #0:0[0x1](und): Audio: aac (LC) (mp4a / 0x6134706D), 48000 Hz, mono, fltp, 74 kb/s, start 0.044000 (default)\n",
      "    Metadata:\n",
      "      creation_time   : 2026-04-21T03:03:19.000000Z\n",
      "      handler_name    : Core Media Audio\n",
      "      vendor_id       : [0][0][0][0]\n",
      "Stream mapping:\n",
      "  Stream #0:0 -> #0:0 (aac (native) -> pcm_s16le (native))\n",
      "Press [q] to stop, [?] for help\n",
      "Output #0, wav, to '../2. wav_audio + text/spk01/spk01_audio0011.wav':\n",
      "  Metadata:\n",
      "    major_brand     : M4A \n",
      "    minor_version   : 0\n",
      "    compatible_brands: M4A isommp42\n",
      "    iTunSMPB        :  00000000 00000840 000003C0 000000000003E000 00000000 00000000 00000000 00000000 00000000 00000000 00000000 00000000\n",
      "    ISFT            : Lavf62.3.100\n",
      "  Stream #0:0(und): Audio: pcm_s16le ([1][0][0][0] / 0x0001), 16000 Hz, mono, s16, 256 kb/s (default)\n",
      "    Metadata:\n",
      "      encoder         : Lavc62.11.100 pcm_s16le\n",
      "      creation_time   : 2026-04-21T03:03:19.000000Z\n",
      "      handler_name    : Core Media Audio\n",
      "      vendor_id       : [0][0][0][0]\n",
      "[out#0/wav @ 0x12171c480] video:0KiB audio:166KiB subtitle:0KiB other streams:0KiB global headers:0KiB muxing overhead: 0.045898%\n",
      "size=     166KiB time=00:00:05.31 bitrate= 256.1kbits/s speed=1.81e+03x elapsed=0:00:00.00    \n",
      "ffmpeg version 8.0.1 Copyright (c) 2000-2025 the FFmpeg developers\n",
      "  built with clang version 19.1.7\n",
      "  configuration: --prefix=/opt/anaconda3/envs/aligner --cc=arm64-apple-darwin20.0.0-clang --cxx=arm64-apple-darwin20.0.0-clang++ --nm=arm64-apple-darwin20.0.0-nm --ar=arm64-apple-darwin20.0.0-ar --disable-doc --enable-openssl --enable-demuxer=dash --enable-hardcoded-tables --enable-libfreetype --enable-libharfbuzz --enable-libfontconfig --enable-libopenh264 --enable-libdav1d --enable-cross-compile --arch=arm64 --target-os=darwin --cross-prefix=arm64-apple-darwin20.0.0- --host-cc=/Users/runner/miniforge3/conda-bld/ffmpeg_1773007843831/_build_env/bin/x86_64-apple-darwin13.4.0-clang --enable-neon --disable-gnutls --enable-libvpx --enable-libass --enable-pthreads --enable-libopenvino --enable-gpl --enable-libx264 --enable-libx265 --enable-libmp3lame --enable-libaom --enable-libsvtav1 --enable-libxml2 --enable-pic --enable-shared --disable-static --enable-version3 --enable-zlib --enable-libvorbis --enable-libopus --enable-librsvg --enable-libjxl --enable-libwebp --enable-ffplay --enable-vulkan --enable-libshaderc --pkg-config=/Users/runner/miniforge3/conda-bld/ffmpeg_1773007843831/_build_env/bin/pkg-config\n",
      "  libavutil      60.  8.100 / 60.  8.100\n",
      "  libavcodec     62. 11.100 / 62. 11.100\n",
      "  libavformat    62.  3.100 / 62.  3.100\n",
      "  libavdevice    62.  1.100 / 62.  1.100\n",
      "  libavfilter    11.  4.100 / 11.  4.100\n",
      "  libswscale      9.  1.100 /  9.  1.100\n",
      "  libswresample   6.  1.100 /  6.  1.100\n",
      "Input #0, mov,mp4,m4a,3gp,3g2,mj2, from '../1. m4a_audio/spk01/spk01_audio0005.m4a':\n",
      "  Metadata:\n",
      "    major_brand     : M4A \n",
      "    minor_version   : 0\n",
      "    compatible_brands: M4A isommp42\n",
      "    creation_time   : 2026-04-21T03:03:19.000000Z\n",
      "    iTunSMPB        :  00000000 00000840 000003C0 000000000002E000 00000000 00000000 00000000 00000000 00000000 00000000 00000000 00000000\n",
      "  Duration: 00:00:03.99, start: 0.044000, bitrate: 81 kb/s\n",
      "  Stream #0:0[0x1](und): Audio: aac (LC) (mp4a / 0x6134706D), 48000 Hz, mono, fltp, 75 kb/s, start 0.044000 (default)\n",
      "    Metadata:\n",
      "      creation_time   : 2026-04-21T03:03:19.000000Z\n",
      "      handler_name    : Core Media Audio\n",
      "      vendor_id       : [0][0][0][0]\n",
      "Stream mapping:\n",
      "  Stream #0:0 -> #0:0 (aac (native) -> pcm_s16le (native))\n",
      "Press [q] to stop, [?] for help\n",
      "Output #0, wav, to '../2. wav_audio + text/spk01/spk01_audio0005.wav':\n",
      "  Metadata:\n",
      "    major_brand     : M4A \n",
      "    minor_version   : 0\n",
      "    compatible_brands: M4A isommp42\n",
      "    iTunSMPB        :  00000000 00000840 000003C0 000000000002E000 00000000 00000000 00000000 00000000 00000000 00000000 00000000 00000000\n",
      "    ISFT            : Lavf62.3.100\n",
      "  Stream #0:0(und): Audio: pcm_s16le ([1][0][0][0] / 0x0001), 16000 Hz, mono, s16, 256 kb/s (default)\n",
      "    Metadata:\n",
      "      encoder         : Lavc62.11.100 pcm_s16le\n",
      "      creation_time   : 2026-04-21T03:03:19.000000Z\n",
      "      handler_name    : Core Media Audio\n",
      "      vendor_id       : [0][0][0][0]\n",
      "[out#0/wav @ 0x137f1c400] video:0KiB audio:123KiB subtitle:0KiB other streams:0KiB global headers:0KiB muxing overhead: 0.061782%\n",
      "size=     123KiB time=00:00:03.94 bitrate= 256.2kbits/s speed=2.32e+03x elapsed=0:00:00.00    \n",
      "ffmpeg version 8.0.1 Copyright (c) 2000-2025 the FFmpeg developers\n",
      "  built with clang version 19.1.7\n",
      "  configuration: --prefix=/opt/anaconda3/envs/aligner --cc=arm64-apple-darwin20.0.0-clang --cxx=arm64-apple-darwin20.0.0-clang++ --nm=arm64-apple-darwin20.0.0-nm --ar=arm64-apple-darwin20.0.0-ar --disable-doc --enable-openssl --enable-demuxer=dash --enable-hardcoded-tables --enable-libfreetype --enable-libharfbuzz --enable-libfontconfig --enable-libopenh264 --enable-libdav1d --enable-cross-compile --arch=arm64 --target-os=darwin --cross-prefix=arm64-apple-darwin20.0.0- --host-cc=/Users/runner/miniforge3/conda-bld/ffmpeg_1773007843831/_build_env/bin/x86_64-apple-darwin13.4.0-clang --enable-neon --disable-gnutls --enable-libvpx --enable-libass --enable-pthreads --enable-libopenvino --enable-gpl --enable-libx264 --enable-libx265 --enable-libmp3lame --enable-libaom --enable-libsvtav1 --enable-libxml2 --enable-pic --enable-shared --disable-static --enable-version3 --enable-zlib --enable-libvorbis --enable-libopus --enable-librsvg --enable-libjxl --enable-libwebp --enable-ffplay --enable-vulkan --enable-libshaderc --pkg-config=/Users/runner/miniforge3/conda-bld/ffmpeg_1773007843831/_build_env/bin/pkg-config\n",
      "  libavutil      60.  8.100 / 60.  8.100\n",
      "  libavcodec     62. 11.100 / 62. 11.100\n",
      "  libavformat    62.  3.100 / 62.  3.100\n",
      "  libavdevice    62.  1.100 / 62.  1.100\n",
      "  libavfilter    11.  4.100 / 11.  4.100\n",
      "  libswscale      9.  1.100 /  9.  1.100\n",
      "  libswresample   6.  1.100 /  6.  1.100\n",
      "Input #0, mov,mp4,m4a,3gp,3g2,mj2, from '../1. m4a_audio/spk01/spk01_audio0013.m4a':\n",
      "  Metadata:\n",
      "    major_brand     : M4A \n",
      "    minor_version   : 0\n",
      "    compatible_brands: M4A isommp42\n",
      "    creation_time   : 2026-04-21T03:03:19.000000Z\n",
      "    iTunSMPB        :  00000000 00000840 000003C0 0000000000031000 00000000 00000000 00000000 00000000 00000000 00000000 00000000 00000000\n",
      "  Duration: 00:00:04.25, start: 0.044000, bitrate: 80 kb/s\n",
      "  Stream #0:0[0x1](und): Audio: aac (LC) (mp4a / 0x6134706D), 48000 Hz, mono, fltp, 73 kb/s, start 0.044000 (default)\n",
      "    Metadata:\n",
      "      creation_time   : 2026-04-21T03:03:19.000000Z\n",
      "      handler_name    : Core Media Audio\n",
      "      vendor_id       : [0][0][0][0]\n",
      "Stream mapping:\n",
      "  Stream #0:0 -> #0:0 (aac (native) -> pcm_s16le (native))\n",
      "Press [q] to stop, [?] for help\n",
      "Output #0, wav, to '../2. wav_audio + text/spk01/spk01_audio0013.wav':\n",
      "  Metadata:\n",
      "    major_brand     : M4A \n",
      "    minor_version   : 0\n",
      "    compatible_brands: M4A isommp42\n",
      "    iTunSMPB        :  00000000 00000840 000003C0 0000000000031000 00000000 00000000 00000000 00000000 00000000 00000000 00000000 00000000\n",
      "    ISFT            : Lavf62.3.100\n",
      "  Stream #0:0(und): Audio: pcm_s16le ([1][0][0][0] / 0x0001), 16000 Hz, mono, s16, 256 kb/s (default)\n",
      "    Metadata:\n",
      "      encoder         : Lavc62.11.100 pcm_s16le\n",
      "      creation_time   : 2026-04-21T03:03:19.000000Z\n",
      "      handler_name    : Core Media Audio\n",
      "      vendor_id       : [0][0][0][0]\n",
      "[out#0/wav @ 0x14de2c7f0] video:0KiB audio:131KiB subtitle:0KiB other streams:0KiB global headers:0KiB muxing overhead: 0.058018%\n",
      "size=     131KiB time=00:00:04.20 bitrate= 256.1kbits/s speed=2.32e+03x elapsed=0:00:00.00    \n",
      "ffmpeg version 8.0.1 Copyright (c) 2000-2025 the FFmpeg developers\n",
      "  built with clang version 19.1.7\n",
      "  configuration: --prefix=/opt/anaconda3/envs/aligner --cc=arm64-apple-darwin20.0.0-clang --cxx=arm64-apple-darwin20.0.0-clang++ --nm=arm64-apple-darwin20.0.0-nm --ar=arm64-apple-darwin20.0.0-ar --disable-doc --enable-openssl --enable-demuxer=dash --enable-hardcoded-tables --enable-libfreetype --enable-libharfbuzz --enable-libfontconfig --enable-libopenh264 --enable-libdav1d --enable-cross-compile --arch=arm64 --target-os=darwin --cross-prefix=arm64-apple-darwin20.0.0- --host-cc=/Users/runner/miniforge3/conda-bld/ffmpeg_1773007843831/_build_env/bin/x86_64-apple-darwin13.4.0-clang --enable-neon --disable-gnutls --enable-libvpx --enable-libass --enable-pthreads --enable-libopenvino --enable-gpl --enable-libx264 --enable-libx265 --enable-libmp3lame --enable-libaom --enable-libsvtav1 --enable-libxml2 --enable-pic --enable-shared --disable-static --enable-version3 --enable-zlib --enable-libvorbis --enable-libopus --enable-librsvg --enable-libjxl --enable-libwebp --enable-ffplay --enable-vulkan --enable-libshaderc --pkg-config=/Users/runner/miniforge3/conda-bld/ffmpeg_1773007843831/_build_env/bin/pkg-config\n",
      "  libavutil      60.  8.100 / 60.  8.100\n",
      "  libavcodec     62. 11.100 / 62. 11.100\n",
      "  libavformat    62.  3.100 / 62.  3.100\n",
      "  libavdevice    62.  1.100 / 62.  1.100\n",
      "  libavfilter    11.  4.100 / 11.  4.100\n",
      "  libswscale      9.  1.100 /  9.  1.100\n",
      "  libswresample   6.  1.100 /  6.  1.100\n",
      "Input #0, mov,mp4,m4a,3gp,3g2,mj2, from '../1. m4a_audio/spk01/spk01_audio0007.m4a':\n",
      "  Metadata:\n",
      "    major_brand     : M4A \n",
      "    minor_version   : 0\n",
      "    compatible_brands: M4A isommp42\n",
      "    creation_time   : 2026-04-21T03:03:19.000000Z\n",
      "    iTunSMPB        :  00000000 00000840 000003C0 0000000000038000 00000000 00000000 00000000 00000000 00000000 00000000 00000000 00000000\n",
      "  Duration: 00:00:04.84, start: 0.044000, bitrate: 80 kb/s\n",
      "  Stream #0:0[0x1](und): Audio: aac (LC) (mp4a / 0x6134706D), 48000 Hz, mono, fltp, 74 kb/s, start 0.044000 (default)\n",
      "    Metadata:\n",
      "      creation_time   : 2026-04-21T03:03:19.000000Z\n",
      "      handler_name    : Core Media Audio\n",
      "      vendor_id       : [0][0][0][0]\n",
      "Stream mapping:\n",
      "  Stream #0:0 -> #0:0 (aac (native) -> pcm_s16le (native))\n",
      "Press [q] to stop, [?] for help\n",
      "Output #0, wav, to '../2. wav_audio + text/spk01/spk01_audio0007.wav':\n",
      "  Metadata:\n",
      "    major_brand     : M4A \n",
      "    minor_version   : 0\n",
      "    compatible_brands: M4A isommp42\n",
      "    iTunSMPB        :  00000000 00000840 000003C0 0000000000038000 00000000 00000000 00000000 00000000 00000000 00000000 00000000 00000000\n",
      "    ISFT            : Lavf62.3.100\n",
      "  Stream #0:0(und): Audio: pcm_s16le ([1][0][0][0] / 0x0001), 16000 Hz, mono, s16, 256 kb/s (default)\n",
      "    Metadata:\n",
      "      encoder         : Lavc62.11.100 pcm_s16le\n",
      "      creation_time   : 2026-04-21T03:03:19.000000Z\n",
      "      handler_name    : Core Media Audio\n",
      "      vendor_id       : [0][0][0][0]\n",
      "[out#0/wav @ 0x15481bd30] video:0KiB audio:150KiB subtitle:0KiB other streams:0KiB global headers:0KiB muxing overhead: 0.050795%\n",
      "size=     150KiB time=00:00:04.79 bitrate= 256.1kbits/s speed=2.08e+03x elapsed=0:00:00.00    \n",
      "ffmpeg version 8.0.1 Copyright (c) 2000-2025 the FFmpeg developers\n",
      "  built with clang version 19.1.7\n",
      "  configuration: --prefix=/opt/anaconda3/envs/aligner --cc=arm64-apple-darwin20.0.0-clang --cxx=arm64-apple-darwin20.0.0-clang++ --nm=arm64-apple-darwin20.0.0-nm --ar=arm64-apple-darwin20.0.0-ar --disable-doc --enable-openssl --enable-demuxer=dash --enable-hardcoded-tables --enable-libfreetype --enable-libharfbuzz --enable-libfontconfig --enable-libopenh264 --enable-libdav1d --enable-cross-compile --arch=arm64 --target-os=darwin --cross-prefix=arm64-apple-darwin20.0.0- --host-cc=/Users/runner/miniforge3/conda-bld/ffmpeg_1773007843831/_build_env/bin/x86_64-apple-darwin13.4.0-clang --enable-neon --disable-gnutls --enable-libvpx --enable-libass --enable-pthreads --enable-libopenvino --enable-gpl --enable-libx264 --enable-libx265 --enable-libmp3lame --enable-libaom --enable-libsvtav1 --enable-libxml2 --enable-pic --enable-shared --disable-static --enable-version3 --enable-zlib --enable-libvorbis --enable-libopus --enable-librsvg --enable-libjxl --enable-libwebp --enable-ffplay --enable-vulkan --enable-libshaderc --pkg-config=/Users/runner/miniforge3/conda-bld/ffmpeg_1773007843831/_build_env/bin/pkg-config\n",
      "  libavutil      60.  8.100 / 60.  8.100\n",
      "  libavcodec     62. 11.100 / 62. 11.100\n",
      "  libavformat    62.  3.100 / 62.  3.100\n",
      "  libavdevice    62.  1.100 / 62.  1.100\n",
      "  libavfilter    11.  4.100 / 11.  4.100\n",
      "  libswscale      9.  1.100 /  9.  1.100\n",
      "  libswresample   6.  1.100 /  6.  1.100\n",
      "Input #0, mov,mp4,m4a,3gp,3g2,mj2, from '../1. m4a_audio/spk01/spk01_audio0006.m4a':\n",
      "  Metadata:\n",
      "    major_brand     : M4A \n",
      "    minor_version   : 0\n",
      "    compatible_brands: M4A isommp42\n",
      "    creation_time   : 2026-04-21T03:03:19.000000Z\n",
      "    iTunSMPB        :  00000000 00000840 000003C0 0000000000023000 00000000 00000000 00000000 00000000 00000000 00000000 00000000 00000000\n",
      "  Duration: 00:00:03.05, start: 0.044000, bitrate: 79 kb/s\n",
      "  Stream #0:0[0x1](und): Audio: aac (LC) (mp4a / 0x6134706D), 48000 Hz, mono, fltp, 72 kb/s, start 0.044000 (default)\n",
      "    Metadata:\n",
      "      creation_time   : 2026-04-21T03:03:19.000000Z\n",
      "      handler_name    : Core Media Audio\n",
      "      vendor_id       : [0][0][0][0]\n",
      "Stream mapping:\n",
      "  Stream #0:0 -> #0:0 (aac (native) -> pcm_s16le (native))\n",
      "Press [q] to stop, [?] for help\n",
      "Output #0, wav, to '../2. wav_audio + text/spk01/spk01_audio0006.wav':\n",
      "  Metadata:\n",
      "    major_brand     : M4A \n",
      "    minor_version   : 0\n",
      "    compatible_brands: M4A isommp42\n",
      "    iTunSMPB        :  00000000 00000840 000003C0 0000000000023000 00000000 00000000 00000000 00000000 00000000 00000000 00000000 00000000\n",
      "    ISFT            : Lavf62.3.100\n",
      "  Stream #0:0(und): Audio: pcm_s16le ([1][0][0][0] / 0x0001), 16000 Hz, mono, s16, 256 kb/s (default)\n",
      "    Metadata:\n",
      "      encoder         : Lavc62.11.100 pcm_s16le\n",
      "      creation_time   : 2026-04-21T03:03:19.000000Z\n",
      "      handler_name    : Core Media Audio\n",
      "      vendor_id       : [0][0][0][0]\n",
      "[out#0/wav @ 0x12ce1a7f0] video:0KiB audio:94KiB subtitle:0KiB other streams:0KiB global headers:0KiB muxing overhead: 0.081069%\n",
      "size=      94KiB time=00:00:03.00 bitrate= 256.2kbits/s speed=2.13e+03x elapsed=0:00:00.00    \n",
      "ffmpeg version 8.0.1 Copyright (c) 2000-2025 the FFmpeg developers\n",
      "  built with clang version 19.1.7\n",
      "  configuration: --prefix=/opt/anaconda3/envs/aligner --cc=arm64-apple-darwin20.0.0-clang --cxx=arm64-apple-darwin20.0.0-clang++ --nm=arm64-apple-darwin20.0.0-nm --ar=arm64-apple-darwin20.0.0-ar --disable-doc --enable-openssl --enable-demuxer=dash --enable-hardcoded-tables --enable-libfreetype --enable-libharfbuzz --enable-libfontconfig --enable-libopenh264 --enable-libdav1d --enable-cross-compile --arch=arm64 --target-os=darwin --cross-prefix=arm64-apple-darwin20.0.0- --host-cc=/Users/runner/miniforge3/conda-bld/ffmpeg_1773007843831/_build_env/bin/x86_64-apple-darwin13.4.0-clang --enable-neon --disable-gnutls --enable-libvpx --enable-libass --enable-pthreads --enable-libopenvino --enable-gpl --enable-libx264 --enable-libx265 --enable-libmp3lame --enable-libaom --enable-libsvtav1 --enable-libxml2 --enable-pic --enable-shared --disable-static --enable-version3 --enable-zlib --enable-libvorbis --enable-libopus --enable-librsvg --enable-libjxl --enable-libwebp --enable-ffplay --enable-vulkan --enable-libshaderc --pkg-config=/Users/runner/miniforge3/conda-bld/ffmpeg_1773007843831/_build_env/bin/pkg-config\n",
      "  libavutil      60.  8.100 / 60.  8.100\n",
      "  libavcodec     62. 11.100 / 62. 11.100\n",
      "  libavformat    62.  3.100 / 62.  3.100\n",
      "  libavdevice    62.  1.100 / 62.  1.100\n",
      "  libavfilter    11.  4.100 / 11.  4.100\n",
      "  libswscale      9.  1.100 /  9.  1.100\n",
      "  libswresample   6.  1.100 /  6.  1.100\n",
      "Input #0, mov,mp4,m4a,3gp,3g2,mj2, from '../1. m4a_audio/spk01/spk01_audio0012.m4a':\n",
      "  Metadata:\n",
      "    major_brand     : M4A \n",
      "    minor_version   : 0\n",
      "    compatible_brands: M4A isommp42\n",
      "    creation_time   : 2026-04-21T03:03:19.000000Z\n",
      "    iTunSMPB        :  00000000 00000840 000003C0 000000000002C000 00000000 00000000 00000000 00000000 00000000 00000000 00000000 00000000\n",
      "  Duration: 00:00:03.82, start: 0.044000, bitrate: 81 kb/s\n",
      "  Stream #0:0[0x1](und): Audio: aac (LC) (mp4a / 0x6134706D), 48000 Hz, mono, fltp, 74 kb/s, start 0.044000 (default)\n",
      "    Metadata:\n",
      "      creation_time   : 2026-04-21T03:03:19.000000Z\n",
      "      handler_name    : Core Media Audio\n",
      "      vendor_id       : [0][0][0][0]\n",
      "Stream mapping:\n",
      "  Stream #0:0 -> #0:0 (aac (native) -> pcm_s16le (native))\n",
      "Press [q] to stop, [?] for help\n",
      "Output #0, wav, to '../2. wav_audio + text/spk01/spk01_audio0012.wav':\n",
      "  Metadata:\n",
      "    major_brand     : M4A \n",
      "    minor_version   : 0\n",
      "    compatible_brands: M4A isommp42\n",
      "    iTunSMPB        :  00000000 00000840 000003C0 000000000002C000 00000000 00000000 00000000 00000000 00000000 00000000 00000000 00000000\n",
      "    ISFT            : Lavf62.3.100\n",
      "  Stream #0:0(und): Audio: pcm_s16le ([1][0][0][0] / 0x0001), 16000 Hz, mono, s16, 256 kb/s (default)\n",
      "    Metadata:\n",
      "      encoder         : Lavc62.11.100 pcm_s16le\n",
      "      creation_time   : 2026-04-21T03:03:19.000000Z\n",
      "      handler_name    : Core Media Audio\n",
      "      vendor_id       : [0][0][0][0]\n",
      "[out#0/wav @ 0x15ae0ad10] video:0KiB audio:118KiB subtitle:0KiB other streams:0KiB global headers:0KiB muxing overhead: 0.064575%\n",
      "size=     118KiB time=00:00:03.77 bitrate= 256.2kbits/s speed=1.92e+03x elapsed=0:00:00.00    \n",
      "ffmpeg version 8.0.1 Copyright (c) 2000-2025 the FFmpeg developers\n",
      "  built with clang version 19.1.7\n",
      "  configuration: --prefix=/opt/anaconda3/envs/aligner --cc=arm64-apple-darwin20.0.0-clang --cxx=arm64-apple-darwin20.0.0-clang++ --nm=arm64-apple-darwin20.0.0-nm --ar=arm64-apple-darwin20.0.0-ar --disable-doc --enable-openssl --enable-demuxer=dash --enable-hardcoded-tables --enable-libfreetype --enable-libharfbuzz --enable-libfontconfig --enable-libopenh264 --enable-libdav1d --enable-cross-compile --arch=arm64 --target-os=darwin --cross-prefix=arm64-apple-darwin20.0.0- --host-cc=/Users/runner/miniforge3/conda-bld/ffmpeg_1773007843831/_build_env/bin/x86_64-apple-darwin13.4.0-clang --enable-neon --disable-gnutls --enable-libvpx --enable-libass --enable-pthreads --enable-libopenvino --enable-gpl --enable-libx264 --enable-libx265 --enable-libmp3lame --enable-libaom --enable-libsvtav1 --enable-libxml2 --enable-pic --enable-shared --disable-static --enable-version3 --enable-zlib --enable-libvorbis --enable-libopus --enable-librsvg --enable-libjxl --enable-libwebp --enable-ffplay --enable-vulkan --enable-libshaderc --pkg-config=/Users/runner/miniforge3/conda-bld/ffmpeg_1773007843831/_build_env/bin/pkg-config\n",
      "  libavutil      60.  8.100 / 60.  8.100\n",
      "  libavcodec     62. 11.100 / 62. 11.100\n",
      "  libavformat    62.  3.100 / 62.  3.100\n",
      "  libavdevice    62.  1.100 / 62.  1.100\n",
      "  libavfilter    11.  4.100 / 11.  4.100\n",
      "  libswscale      9.  1.100 /  9.  1.100\n",
      "  libswresample   6.  1.100 /  6.  1.100\n",
      "Input #0, mov,mp4,m4a,3gp,3g2,mj2, from '../1. m4a_audio/spk01/spk01_audio0002.m4a':\n",
      "  Metadata:\n",
      "    major_brand     : M4A \n",
      "    minor_version   : 0\n",
      "    compatible_brands: M4A isommp42\n",
      "    creation_time   : 2026-04-21T03:03:19.000000Z\n",
      "    iTunSMPB        :  00000000 00000840 000003C0 000000000002F000 00000000 00000000 00000000 00000000 00000000 00000000 00000000 00000000\n",
      "  Duration: 00:00:04.07, start: 0.044000, bitrate: 80 kb/s\n",
      "  Stream #0:0[0x1](und): Audio: aac (LC) (mp4a / 0x6134706D), 48000 Hz, mono, fltp, 74 kb/s, start 0.044000 (default)\n",
      "    Metadata:\n",
      "      creation_time   : 2026-04-21T03:03:19.000000Z\n",
      "      handler_name    : Core Media Audio\n",
      "      vendor_id       : [0][0][0][0]\n",
      "Stream mapping:\n",
      "  Stream #0:0 -> #0:0 (aac (native) -> pcm_s16le (native))\n",
      "Press [q] to stop, [?] for help\n",
      "Output #0, wav, to '../2. wav_audio + text/spk01/spk01_audio0002.wav':\n",
      "  Metadata:\n",
      "    major_brand     : M4A \n",
      "    minor_version   : 0\n",
      "    compatible_brands: M4A isommp42\n",
      "    iTunSMPB        :  00000000 00000840 000003C0 000000000002F000 00000000 00000000 00000000 00000000 00000000 00000000 00000000 00000000\n",
      "    ISFT            : Lavf62.3.100\n",
      "  Stream #0:0(und): Audio: pcm_s16le ([1][0][0][0] / 0x0001), 16000 Hz, mono, s16, 256 kb/s (default)\n",
      "    Metadata:\n",
      "      encoder         : Lavc62.11.100 pcm_s16le\n",
      "      creation_time   : 2026-04-21T03:03:19.000000Z\n",
      "      handler_name    : Core Media Audio\n",
      "      vendor_id       : [0][0][0][0]\n",
      "[out#0/wav @ 0x15c004690] video:0KiB audio:126KiB subtitle:0KiB other streams:0KiB global headers:0KiB muxing overhead: 0.060474%\n",
      "size=     126KiB time=00:00:04.03 bitrate= 256.2kbits/s speed=1.73e+03x elapsed=0:00:00.00    \n",
      "ffmpeg version 8.0.1 Copyright (c) 2000-2025 the FFmpeg developers\n",
      "  built with clang version 19.1.7\n",
      "  configuration: --prefix=/opt/anaconda3/envs/aligner --cc=arm64-apple-darwin20.0.0-clang --cxx=arm64-apple-darwin20.0.0-clang++ --nm=arm64-apple-darwin20.0.0-nm --ar=arm64-apple-darwin20.0.0-ar --disable-doc --enable-openssl --enable-demuxer=dash --enable-hardcoded-tables --enable-libfreetype --enable-libharfbuzz --enable-libfontconfig --enable-libopenh264 --enable-libdav1d --enable-cross-compile --arch=arm64 --target-os=darwin --cross-prefix=arm64-apple-darwin20.0.0- --host-cc=/Users/runner/miniforge3/conda-bld/ffmpeg_1773007843831/_build_env/bin/x86_64-apple-darwin13.4.0-clang --enable-neon --disable-gnutls --enable-libvpx --enable-libass --enable-pthreads --enable-libopenvino --enable-gpl --enable-libx264 --enable-libx265 --enable-libmp3lame --enable-libaom --enable-libsvtav1 --enable-libxml2 --enable-pic --enable-shared --disable-static --enable-version3 --enable-zlib --enable-libvorbis --enable-libopus --enable-librsvg --enable-libjxl --enable-libwebp --enable-ffplay --enable-vulkan --enable-libshaderc --pkg-config=/Users/runner/miniforge3/conda-bld/ffmpeg_1773007843831/_build_env/bin/pkg-config\n",
      "  libavutil      60.  8.100 / 60.  8.100\n",
      "  libavcodec     62. 11.100 / 62. 11.100\n",
      "  libavformat    62.  3.100 / 62.  3.100\n",
      "  libavdevice    62.  1.100 / 62.  1.100\n",
      "  libavfilter    11.  4.100 / 11.  4.100\n",
      "  libswscale      9.  1.100 /  9.  1.100\n",
      "  libswresample   6.  1.100 /  6.  1.100\n",
      "Input #0, mov,mp4,m4a,3gp,3g2,mj2, from '../1. m4a_audio/spk01/spk01_audio0003.m4a':\n",
      "  Metadata:\n",
      "    major_brand     : M4A \n",
      "    minor_version   : 0\n",
      "    compatible_brands: M4A isommp42\n",
      "    creation_time   : 2026-04-21T03:03:19.000000Z\n",
      "    iTunSMPB        :  00000000 00000840 000003C0 0000000000029000 00000000 00000000 00000000 00000000 00000000 00000000 00000000 00000000\n",
      "  Duration: 00:00:03.56, start: 0.044000, bitrate: 83 kb/s\n",
      "  Stream #0:0[0x1](und): Audio: aac (LC) (mp4a / 0x6134706D), 48000 Hz, mono, fltp, 76 kb/s, start 0.044000 (default)\n",
      "    Metadata:\n",
      "      creation_time   : 2026-04-21T03:03:19.000000Z\n",
      "      handler_name    : Core Media Audio\n",
      "      vendor_id       : [0][0][0][0]\n",
      "Stream mapping:\n",
      "  Stream #0:0 -> #0:0 (aac (native) -> pcm_s16le (native))\n",
      "Press [q] to stop, [?] for help\n",
      "Output #0, wav, to '../2. wav_audio + text/spk01/spk01_audio0003.wav':\n",
      "  Metadata:\n",
      "    major_brand     : M4A \n",
      "    minor_version   : 0\n",
      "    compatible_brands: M4A isommp42\n",
      "    iTunSMPB        :  00000000 00000840 000003C0 0000000000029000 00000000 00000000 00000000 00000000 00000000 00000000 00000000 00000000\n",
      "    ISFT            : Lavf62.3.100\n",
      "  Stream #0:0(und): Audio: pcm_s16le ([1][0][0][0] / 0x0001), 16000 Hz, mono, s16, 256 kb/s (default)\n",
      "    Metadata:\n",
      "      encoder         : Lavc62.11.100 pcm_s16le\n",
      "      creation_time   : 2026-04-21T03:03:19.000000Z\n",
      "      handler_name    : Core Media Audio\n",
      "      vendor_id       : [0][0][0][0]\n",
      "[out#0/wav @ 0x13800ae80] video:0KiB audio:110KiB subtitle:0KiB other streams:0KiB global headers:0KiB muxing overhead: 0.069273%\n",
      "size=     110KiB time=00:00:03.51 bitrate= 256.2kbits/s speed=2e+03x elapsed=0:00:00.00    \n",
      "ffmpeg version 8.0.1 Copyright (c) 2000-2025 the FFmpeg developers\n",
      "  built with clang version 19.1.7\n",
      "  configuration: --prefix=/opt/anaconda3/envs/aligner --cc=arm64-apple-darwin20.0.0-clang --cxx=arm64-apple-darwin20.0.0-clang++ --nm=arm64-apple-darwin20.0.0-nm --ar=arm64-apple-darwin20.0.0-ar --disable-doc --enable-openssl --enable-demuxer=dash --enable-hardcoded-tables --enable-libfreetype --enable-libharfbuzz --enable-libfontconfig --enable-libopenh264 --enable-libdav1d --enable-cross-compile --arch=arm64 --target-os=darwin --cross-prefix=arm64-apple-darwin20.0.0- --host-cc=/Users/runner/miniforge3/conda-bld/ffmpeg_1773007843831/_build_env/bin/x86_64-apple-darwin13.4.0-clang --enable-neon --disable-gnutls --enable-libvpx --enable-libass --enable-pthreads --enable-libopenvino --enable-gpl --enable-libx264 --enable-libx265 --enable-libmp3lame --enable-libaom --enable-libsvtav1 --enable-libxml2 --enable-pic --enable-shared --disable-static --enable-version3 --enable-zlib --enable-libvorbis --enable-libopus --enable-librsvg --enable-libjxl --enable-libwebp --enable-ffplay --enable-vulkan --enable-libshaderc --pkg-config=/Users/runner/miniforge3/conda-bld/ffmpeg_1773007843831/_build_env/bin/pkg-config\n",
      "  libavutil      60.  8.100 / 60.  8.100\n",
      "  libavcodec     62. 11.100 / 62. 11.100\n",
      "  libavformat    62.  3.100 / 62.  3.100\n",
      "  libavdevice    62.  1.100 / 62.  1.100\n",
      "  libavfilter    11.  4.100 / 11.  4.100\n",
      "  libswscale      9.  1.100 /  9.  1.100\n",
      "  libswresample   6.  1.100 /  6.  1.100\n",
      "Input #0, mov,mp4,m4a,3gp,3g2,mj2, from '../1. m4a_audio/spk01/spk01_audio0001.m4a':\n",
      "  Metadata:\n",
      "    major_brand     : M4A \n",
      "    minor_version   : 0\n",
      "    compatible_brands: M4A isommp42\n",
      "    creation_time   : 2026-04-21T03:03:19.000000Z\n",
      "    iTunSMPB        :  00000000 00000840 000003C0 0000000000036000 00000000 00000000 00000000 00000000 00000000 00000000 00000000 00000000\n",
      "  Duration: 00:00:04.67, start: 0.044000, bitrate: 79 kb/s\n",
      "  Stream #0:0[0x1](und): Audio: aac (LC) (mp4a / 0x6134706D), 48000 Hz, mono, fltp, 73 kb/s, start 0.044000 (default)\n",
      "    Metadata:\n",
      "      creation_time   : 2026-04-21T03:03:19.000000Z\n",
      "      handler_name    : Core Media Audio\n",
      "      vendor_id       : [0][0][0][0]\n",
      "Stream mapping:\n",
      "  Stream #0:0 -> #0:0 (aac (native) -> pcm_s16le (native))\n",
      "Press [q] to stop, [?] for help\n",
      "Output #0, wav, to '../2. wav_audio + text/spk01/spk01_audio0001.wav':\n",
      "  Metadata:\n",
      "    major_brand     : M4A \n",
      "    minor_version   : 0\n",
      "    compatible_brands: M4A isommp42\n",
      "    iTunSMPB        :  00000000 00000840 000003C0 0000000000036000 00000000 00000000 00000000 00000000 00000000 00000000 00000000 00000000\n",
      "    ISFT            : Lavf62.3.100\n",
      "  Stream #0:0(und): Audio: pcm_s16le ([1][0][0][0] / 0x0001), 16000 Hz, mono, s16, 256 kb/s (default)\n",
      "    Metadata:\n",
      "      encoder         : Lavc62.11.100 pcm_s16le\n",
      "      creation_time   : 2026-04-21T03:03:19.000000Z\n",
      "      handler_name    : Core Media Audio\n",
      "      vendor_id       : [0][0][0][0]\n",
      "[out#0/wav @ 0x14b1044a0] video:0KiB audio:145KiB subtitle:0KiB other streams:0KiB global headers:0KiB muxing overhead: 0.052669%\n",
      "size=     145KiB time=00:00:04.62 bitrate= 256.1kbits/s speed=2.03e+03x elapsed=0:00:00.00    \n",
      "ffmpeg version 8.0.1 Copyright (c) 2000-2025 the FFmpeg developers\n",
      "  built with clang version 19.1.7\n",
      "  configuration: --prefix=/opt/anaconda3/envs/aligner --cc=arm64-apple-darwin20.0.0-clang --cxx=arm64-apple-darwin20.0.0-clang++ --nm=arm64-apple-darwin20.0.0-nm --ar=arm64-apple-darwin20.0.0-ar --disable-doc --enable-openssl --enable-demuxer=dash --enable-hardcoded-tables --enable-libfreetype --enable-libharfbuzz --enable-libfontconfig --enable-libopenh264 --enable-libdav1d --enable-cross-compile --arch=arm64 --target-os=darwin --cross-prefix=arm64-apple-darwin20.0.0- --host-cc=/Users/runner/miniforge3/conda-bld/ffmpeg_1773007843831/_build_env/bin/x86_64-apple-darwin13.4.0-clang --enable-neon --disable-gnutls --enable-libvpx --enable-libass --enable-pthreads --enable-libopenvino --enable-gpl --enable-libx264 --enable-libx265 --enable-libmp3lame --enable-libaom --enable-libsvtav1 --enable-libxml2 --enable-pic --enable-shared --disable-static --enable-version3 --enable-zlib --enable-libvorbis --enable-libopus --enable-librsvg --enable-libjxl --enable-libwebp --enable-ffplay --enable-vulkan --enable-libshaderc --pkg-config=/Users/runner/miniforge3/conda-bld/ffmpeg_1773007843831/_build_env/bin/pkg-config\n",
      "  libavutil      60.  8.100 / 60.  8.100\n",
      "  libavcodec     62. 11.100 / 62. 11.100\n",
      "  libavformat    62.  3.100 / 62.  3.100\n",
      "  libavdevice    62.  1.100 / 62.  1.100\n",
      "  libavfilter    11.  4.100 / 11.  4.100\n",
      "  libswscale      9.  1.100 /  9.  1.100\n",
      "  libswresample   6.  1.100 /  6.  1.100\n",
      "Input #0, mov,mp4,m4a,3gp,3g2,mj2, from '../1. m4a_audio/spk01/spk01_audio0015.m4a':\n",
      "  Metadata:\n",
      "    major_brand     : M4A \n",
      "    minor_version   : 0\n",
      "    compatible_brands: M4A isommp42\n",
      "    creation_time   : 2026-04-21T03:03:19.000000Z\n",
      "    iTunSMPB        :  00000000 00000840 000003C0 0000000000024000 00000000 00000000 00000000 00000000 00000000 00000000 00000000 00000000\n",
      "  Duration: 00:00:03.14, start: 0.044000, bitrate: 80 kb/s\n",
      "  Stream #0:0[0x1](und): Audio: aac (LC) (mp4a / 0x6134706D), 48000 Hz, mono, fltp, 72 kb/s, start 0.044000 (default)\n",
      "    Metadata:\n",
      "      creation_time   : 2026-04-21T03:03:19.000000Z\n",
      "      handler_name    : Core Media Audio\n",
      "      vendor_id       : [0][0][0][0]\n",
      "Stream mapping:\n",
      "  Stream #0:0 -> #0:0 (aac (native) -> pcm_s16le (native))\n",
      "Press [q] to stop, [?] for help\n",
      "Output #0, wav, to '../2. wav_audio + text/spk01/spk01_audio0015.wav':\n",
      "  Metadata:\n",
      "    major_brand     : M4A \n",
      "    minor_version   : 0\n",
      "    compatible_brands: M4A isommp42\n",
      "    iTunSMPB        :  00000000 00000840 000003C0 0000000000024000 00000000 00000000 00000000 00000000 00000000 00000000 00000000 00000000\n",
      "    ISFT            : Lavf62.3.100\n",
      "  Stream #0:0(und): Audio: pcm_s16le ([1][0][0][0] / 0x0001), 16000 Hz, mono, s16, 256 kb/s (default)\n",
      "    Metadata:\n",
      "      encoder         : Lavc62.11.100 pcm_s16le\n",
      "      creation_time   : 2026-04-21T03:03:19.000000Z\n",
      "      handler_name    : Core Media Audio\n",
      "      vendor_id       : [0][0][0][0]\n",
      "[out#0/wav @ 0x15971c830] video:0KiB audio:97KiB subtitle:0KiB other streams:0KiB global headers:0KiB muxing overhead: 0.078832%\n",
      "size=      97KiB time=00:00:03.09 bitrate= 256.2kbits/s speed=2.19e+03x elapsed=0:00:00.00    \n",
      "ffmpeg version 8.0.1 Copyright (c) 2000-2025 the FFmpeg developers\n",
      "  built with clang version 19.1.7\n",
      "  configuration: --prefix=/opt/anaconda3/envs/aligner --cc=arm64-apple-darwin20.0.0-clang --cxx=arm64-apple-darwin20.0.0-clang++ --nm=arm64-apple-darwin20.0.0-nm --ar=arm64-apple-darwin20.0.0-ar --disable-doc --enable-openssl --enable-demuxer=dash --enable-hardcoded-tables --enable-libfreetype --enable-libharfbuzz --enable-libfontconfig --enable-libopenh264 --enable-libdav1d --enable-cross-compile --arch=arm64 --target-os=darwin --cross-prefix=arm64-apple-darwin20.0.0- --host-cc=/Users/runner/miniforge3/conda-bld/ffmpeg_1773007843831/_build_env/bin/x86_64-apple-darwin13.4.0-clang --enable-neon --disable-gnutls --enable-libvpx --enable-libass --enable-pthreads --enable-libopenvino --enable-gpl --enable-libx264 --enable-libx265 --enable-libmp3lame --enable-libaom --enable-libsvtav1 --enable-libxml2 --enable-pic --enable-shared --disable-static --enable-version3 --enable-zlib --enable-libvorbis --enable-libopus --enable-librsvg --enable-libjxl --enable-libwebp --enable-ffplay --enable-vulkan --enable-libshaderc --pkg-config=/Users/runner/miniforge3/conda-bld/ffmpeg_1773007843831/_build_env/bin/pkg-config\n",
      "  libavutil      60.  8.100 / 60.  8.100\n",
      "  libavcodec     62. 11.100 / 62. 11.100\n",
      "  libavformat    62.  3.100 / 62.  3.100\n",
      "  libavdevice    62.  1.100 / 62.  1.100\n",
      "  libavfilter    11.  4.100 / 11.  4.100\n",
      "  libswscale      9.  1.100 /  9.  1.100\n",
      "  libswresample   6.  1.100 /  6.  1.100\n",
      "Input #0, mov,mp4,m4a,3gp,3g2,mj2, from '../1. m4a_audio/spk01/spk01_audio0014.m4a':\n",
      "  Metadata:\n",
      "    major_brand     : M4A \n",
      "    minor_version   : 0\n",
      "    compatible_brands: M4A isommp42\n",
      "    creation_time   : 2026-04-21T03:03:19.000000Z\n",
      "    iTunSMPB        :  00000000 00000840 000003C0 000000000002B000 00000000 00000000 00000000 00000000 00000000 00000000 00000000 00000000\n",
      "  Duration: 00:00:03.73, start: 0.044000, bitrate: 80 kb/s\n",
      "  Stream #0:0[0x1](und): Audio: aac (LC) (mp4a / 0x6134706D), 48000 Hz, mono, fltp, 73 kb/s, start 0.044000 (default)\n",
      "    Metadata:\n",
      "      creation_time   : 2026-04-21T03:03:19.000000Z\n",
      "      handler_name    : Core Media Audio\n",
      "      vendor_id       : [0][0][0][0]\n",
      "Stream mapping:\n",
      "  Stream #0:0 -> #0:0 (aac (native) -> pcm_s16le (native))\n",
      "Press [q] to stop, [?] for help\n",
      "Output #0, wav, to '../2. wav_audio + text/spk01/spk01_audio0014.wav':\n",
      "  Metadata:\n",
      "    major_brand     : M4A \n",
      "    minor_version   : 0\n",
      "    compatible_brands: M4A isommp42\n",
      "    iTunSMPB        :  00000000 00000840 000003C0 000000000002B000 00000000 00000000 00000000 00000000 00000000 00000000 00000000 00000000\n",
      "    ISFT            : Lavf62.3.100\n",
      "  Stream #0:0(und): Audio: pcm_s16le ([1][0][0][0] / 0x0001), 16000 Hz, mono, s16, 256 kb/s (default)\n",
      "    Metadata:\n",
      "      encoder         : Lavc62.11.100 pcm_s16le\n",
      "      creation_time   : 2026-04-21T03:03:19.000000Z\n",
      "      handler_name    : Core Media Audio\n",
      "      vendor_id       : [0][0][0][0]\n",
      "[out#0/wav @ 0x15a71c1e0] video:0KiB audio:115KiB subtitle:0KiB other streams:0KiB global headers:0KiB muxing overhead: 0.066069%\n",
      "size=     115KiB time=00:00:03.68 bitrate= 256.2kbits/s speed=2.12e+03x elapsed=0:00:00.00    \n",
      "ffmpeg version 8.0.1 Copyright (c) 2000-2025 the FFmpeg developers\n",
      "  built with clang version 19.1.7\n",
      "  configuration: --prefix=/opt/anaconda3/envs/aligner --cc=arm64-apple-darwin20.0.0-clang --cxx=arm64-apple-darwin20.0.0-clang++ --nm=arm64-apple-darwin20.0.0-nm --ar=arm64-apple-darwin20.0.0-ar --disable-doc --enable-openssl --enable-demuxer=dash --enable-hardcoded-tables --enable-libfreetype --enable-libharfbuzz --enable-libfontconfig --enable-libopenh264 --enable-libdav1d --enable-cross-compile --arch=arm64 --target-os=darwin --cross-prefix=arm64-apple-darwin20.0.0- --host-cc=/Users/runner/miniforge3/conda-bld/ffmpeg_1773007843831/_build_env/bin/x86_64-apple-darwin13.4.0-clang --enable-neon --disable-gnutls --enable-libvpx --enable-libass --enable-pthreads --enable-libopenvino --enable-gpl --enable-libx264 --enable-libx265 --enable-libmp3lame --enable-libaom --enable-libsvtav1 --enable-libxml2 --enable-pic --enable-shared --disable-static --enable-version3 --enable-zlib --enable-libvorbis --enable-libopus --enable-librsvg --enable-libjxl --enable-libwebp --enable-ffplay --enable-vulkan --enable-libshaderc --pkg-config=/Users/runner/miniforge3/conda-bld/ffmpeg_1773007843831/_build_env/bin/pkg-config\n",
      "  libavutil      60.  8.100 / 60.  8.100\n",
      "  libavcodec     62. 11.100 / 62. 11.100\n",
      "  libavformat    62.  3.100 / 62.  3.100\n",
      "  libavdevice    62.  1.100 / 62.  1.100\n",
      "  libavfilter    11.  4.100 / 11.  4.100\n",
      "  libswscale      9.  1.100 /  9.  1.100\n",
      "  libswresample   6.  1.100 /  6.  1.100\n",
      "Input #0, mov,mp4,m4a,3gp,3g2,mj2, from '../1. m4a_audio/spk01/spk01_audio0008.m4a':\n",
      "  Metadata:\n",
      "    major_brand     : M4A \n",
      "    minor_version   : 0\n",
      "    compatible_brands: M4A isommp42\n",
      "    creation_time   : 2026-04-21T03:03:19.000000Z\n",
      "    iTunSMPB        :  00000000 00000840 000003C0 000000000003D000 00000000 00000000 00000000 00000000 00000000 00000000 00000000 00000000\n",
      "  Duration: 00:00:05.27, start: 0.044000, bitrate: 81 kb/s\n",
      "  Stream #0:0[0x1](und): Audio: aac (LC) (mp4a / 0x6134706D), 48000 Hz, mono, fltp, 75 kb/s, start 0.044000 (default)\n",
      "    Metadata:\n",
      "      creation_time   : 2026-04-21T03:03:19.000000Z\n",
      "      handler_name    : Core Media Audio\n",
      "      vendor_id       : [0][0][0][0]\n",
      "Stream mapping:\n",
      "  Stream #0:0 -> #0:0 (aac (native) -> pcm_s16le (native))\n",
      "Press [q] to stop, [?] for help\n",
      "Output #0, wav, to '../2. wav_audio + text/spk01/spk01_audio0008.wav':\n",
      "  Metadata:\n",
      "    major_brand     : M4A \n",
      "    minor_version   : 0\n",
      "    compatible_brands: M4A isommp42\n",
      "    iTunSMPB        :  00000000 00000840 000003C0 000000000003D000 00000000 00000000 00000000 00000000 00000000 00000000 00000000 00000000\n",
      "    ISFT            : Lavf62.3.100\n",
      "  Stream #0:0(und): Audio: pcm_s16le ([1][0][0][0] / 0x0001), 16000 Hz, mono, s16, 256 kb/s (default)\n",
      "    Metadata:\n",
      "      encoder         : Lavc62.11.100 pcm_s16le\n",
      "      creation_time   : 2026-04-21T03:03:19.000000Z\n",
      "      handler_name    : Core Media Audio\n",
      "      vendor_id       : [0][0][0][0]\n",
      "[out#0/wav @ 0x12180a840] video:0KiB audio:163KiB subtitle:0KiB other streams:0KiB global headers:0KiB muxing overhead: 0.046648%\n",
      "size=     163KiB time=00:00:05.22 bitrate= 256.1kbits/s speed=2.33e+03x elapsed=0:00:00.00    \n",
      "ffmpeg version 8.0.1 Copyright (c) 2000-2025 the FFmpeg developers\n",
      "  built with clang version 19.1.7\n",
      "  configuration: --prefix=/opt/anaconda3/envs/aligner --cc=arm64-apple-darwin20.0.0-clang --cxx=arm64-apple-darwin20.0.0-clang++ --nm=arm64-apple-darwin20.0.0-nm --ar=arm64-apple-darwin20.0.0-ar --disable-doc --enable-openssl --enable-demuxer=dash --enable-hardcoded-tables --enable-libfreetype --enable-libharfbuzz --enable-libfontconfig --enable-libopenh264 --enable-libdav1d --enable-cross-compile --arch=arm64 --target-os=darwin --cross-prefix=arm64-apple-darwin20.0.0- --host-cc=/Users/runner/miniforge3/conda-bld/ffmpeg_1773007843831/_build_env/bin/x86_64-apple-darwin13.4.0-clang --enable-neon --disable-gnutls --enable-libvpx --enable-libass --enable-pthreads --enable-libopenvino --enable-gpl --enable-libx264 --enable-libx265 --enable-libmp3lame --enable-libaom --enable-libsvtav1 --enable-libxml2 --enable-pic --enable-shared --disable-static --enable-version3 --enable-zlib --enable-libvorbis --enable-libopus --enable-librsvg --enable-libjxl --enable-libwebp --enable-ffplay --enable-vulkan --enable-libshaderc --pkg-config=/Users/runner/miniforge3/conda-bld/ffmpeg_1773007843831/_build_env/bin/pkg-config\n",
      "  libavutil      60.  8.100 / 60.  8.100\n",
      "  libavcodec     62. 11.100 / 62. 11.100\n",
      "  libavformat    62.  3.100 / 62.  3.100\n",
      "  libavdevice    62.  1.100 / 62.  1.100\n",
      "  libavfilter    11.  4.100 / 11.  4.100\n",
      "  libswscale      9.  1.100 /  9.  1.100\n",
      "  libswresample   6.  1.100 /  6.  1.100\n",
      "Input #0, mov,mp4,m4a,3gp,3g2,mj2, from '../1. m4a_audio/spk01/spk01_audio0009.m4a':\n",
      "  Metadata:\n",
      "    major_brand     : M4A \n",
      "    minor_version   : 0\n",
      "    compatible_brands: M4A isommp42\n",
      "    creation_time   : 2026-04-21T03:03:19.000000Z\n",
      "    iTunSMPB        :  00000000 00000840 000003C0 0000000000036000 00000000 00000000 00000000 00000000 00000000 00000000 00000000 00000000\n",
      "  Duration: 00:00:04.67, start: 0.044000, bitrate: 80 kb/s\n",
      "  Stream #0:0[0x1](und): Audio: aac (LC) (mp4a / 0x6134706D), 48000 Hz, mono, fltp, 74 kb/s, start 0.044000 (default)\n",
      "    Metadata:\n",
      "      creation_time   : 2026-04-21T03:03:19.000000Z\n",
      "      handler_name    : Core Media Audio\n",
      "      vendor_id       : [0][0][0][0]\n",
      "Stream mapping:\n",
      "  Stream #0:0 -> #0:0 (aac (native) -> pcm_s16le (native))\n",
      "Press [q] to stop, [?] for help\n",
      "Output #0, wav, to '../2. wav_audio + text/spk01/spk01_audio0009.wav':\n",
      "  Metadata:\n",
      "    major_brand     : M4A \n",
      "    minor_version   : 0\n",
      "    compatible_brands: M4A isommp42\n",
      "    iTunSMPB        :  00000000 00000840 000003C0 0000000000036000 00000000 00000000 00000000 00000000 00000000 00000000 00000000 00000000\n",
      "    ISFT            : Lavf62.3.100\n",
      "  Stream #0:0(und): Audio: pcm_s16le ([1][0][0][0] / 0x0001), 16000 Hz, mono, s16, 256 kb/s (default)\n",
      "    Metadata:\n",
      "      encoder         : Lavc62.11.100 pcm_s16le\n",
      "      creation_time   : 2026-04-21T03:03:19.000000Z\n",
      "      handler_name    : Core Media Audio\n",
      "      vendor_id       : [0][0][0][0]\n",
      "[out#0/wav @ 0x13bf0b690] video:0KiB audio:145KiB subtitle:0KiB other streams:0KiB global headers:0KiB muxing overhead: 0.052669%\n",
      "size=     145KiB time=00:00:04.62 bitrate= 256.1kbits/s speed=2.38e+03x elapsed=0:00:00.00    \n"
     ]
    }
   ],
   "source": [
    "base_input = '../1. m4a_audio'\n",
    "base_output = '../2. wav_audio + text'\n",
    "\n",
    "for speaker in os.listdir(base_input):\n",
    "    speaker_path = os.path.join(base_input, speaker)\n",
    "\n",
    "    if os.path.isdir(speaker_path):\n",
    "        output_folder = os.path.join(base_output, speaker)\n",
    "        os.makedirs(output_folder, exist_ok=True)\n",
    "\n",
    "        for file in os.listdir(speaker_path):\n",
    "            if file.endswith(\".m4a\"):\n",
    "                input_path = os.path.join(speaker_path, file)\n",
    "                output_path = os.path.join(\n",
    "                    output_folder,\n",
    "                    file.replace(\".m4a\", \".wav\")\n",
    "                )\n",
    "\n",
    "                (\n",
    "                    ffmpeg\n",
    "                    .input(input_path)\n",
    "                    .output(output_path, ac=1, ar=16000)\n",
    "                    .run(overwrite_output=True)\n",
    "                )"
   ]
  }
 ],
 "metadata": {
  "kernelspec": {
   "display_name": "aligner",
   "language": "python",
   "name": "python3"
  },
  "language_info": {
   "codemirror_mode": {
    "name": "ipython",
    "version": 3
   },
   "file_extension": ".py",
   "mimetype": "text/x-python",
   "name": "python",
   "nbconvert_exporter": "python",
   "pygments_lexer": "ipython3",
   "version": "3.14.4"
  }
 },
 "nbformat": 4,
 "nbformat_minor": 5
}
